<svg xmlns="http://www.w3.org/2000/svg" viewBox="0 0 36 36"><path fill="#9AAAB4" d="M25 4H14a2 2 0 0 0-2 2H6a2 2 0 0 0-2-2H3a2 2 0 0 0-2 2H0v5a2 2 0 0 0 2 2h10v4a7 7 0 0 0 7 7c3.581 0 6.585-2.53 7-6h1a2 2 0 0 0 2-2V8a4 4 0 0 1-4-4m-6 18c-6 0-5.127-6.449-5-7l10 2c-.183 2.391-2.562 5-5 5"/><path fill="#BF6952" d="m26 18 3-5s5 0 6 9l1 6s0 4-4 4h-2c-4 0-4-4-4-4z"/><path fill="#9AAAB4" d="M27 14a2 2 0 0 1-2-2c0-2.814 1.864-7 7-7a2 2 0 0 1 0 4c-2.855 0-3 2.499-3 3a2 2 0 0 1-2 2m-8 1c0 1 0 3-1 4s2 1 3-1 1-2 1-3-3 0-3 0"/><path fill="#67757F" d="M25 10a4 4 0 0 1-4 4h-5.995c-2.209 0-2-1.791-2-4H13c0-2.209-.204-4 2.005-4H21a4 4 0 0 1 4 4"/><path fill="#CCD6DD" d="M20 9h-5a1 1 0 0 1 0-2h5a1 1 0 1 1 0 2m0 4h-5a1 1 0 0 1 0-2h5a1 1 0 1 1 0 2"/></svg>