<svg xmlns="http://www.w3.org/2000/svg" xml:space="preserve" fill-rule="evenodd" stroke-linecap="round" stroke-linejoin="round" stroke-miterlimit="1.5" clip-rule="evenodd" viewBox="0 0 32 32"><clipPath id="a"><path d="M0 0h32v32H0z"/></clipPath><g clip-path="url(#a)"><path fill="none" stroke="#000" stroke-width="4" d="M4.017 10.739C.468 12.065-4.758 9.326-4.151 3.607-3.727-.397-.977-3.076-.477-2.966l.943.931c3.067-2.641 9.549-4.335 11.514-.517l.023-.016 1.766.972c-.737-.951-1.292-1.675-1.317-1.732l9.789-4.227c13.08-5.192 16.031 5.204 13.004 11.848-1.842 4.042-5.662 4.692-9.321 3.881C28.34 10.542 30 13.864 30 18c0 1.019-.125 2.006-.364 2.949 3.436-.39 6.999 2.004 7.238 4.838.139 1.657-1.017 4.753-2.714 6.507l.048 1.617c-3.683 3.883-7.929 3.537-10.443 1.899a5 5 0 0 1-2.171.78q-.437.044-.857.059a9 9 0 0 1-.452 1.253l-4.466-1.751c.759 3.165-1.523 6.009-6.269 5.504-4.832-.515-6.098-3.347-5.952-6.156-2.171-.253-4.078-.837-4.824-2.062-1.349-2.218.883-6.401 1.511-7.957a5.95 5.95 0 0 1 2.598-2.956A11.9 11.9 0 0 1 2 18c0-2.811.767-5.246 2.017-7.261"/><path fill="#ffb636" d="M27.803 10.457C29.159 12.525 30 15.057 30 18q0 .464-.034.919c-.429.019-4.793 4.194-6.268 5.073-.194-.13-7.577-2.783-9.373-.524a11.7 11.7 0 0 0-3.363-.174c-1.502-1.648-7.532-2.38-8.683-2.704Q2.002 19.337 2 18c0-1.816.32-3.475.884-4.966 2.068-.193 3.975-4.203 5.134-6.105 1.956.416 3.839.058 5.429-.807 1.667.155 3.657-.138 5.65-1.447l.228-.153c2.248 1.445 8.361 5.928 8.478 5.935"/><path fill="#694300" d="M2.279 20.59a7.35 7.35 0 0 1 3.611-.768c1.762.088 3.57.824 5.072 2.472a11.7 11.7 0 0 1 3.363.174c1.796-2.259 5.47-3.421 8.778-1.818q.303.147.595.342a16.2 16.2 0 0 1 4.986-1.915 8 8 0 0 1 1.282-.158C29.474 25.475 23.742 30.5 16 30.5c-7.07 0-12.464-4.19-13.721-9.91m.605-7.556C5.074 7.243 10.942 4 16 4c4.25 0 9.072 2.29 11.803 6.457a14 14 0 0 1-.353-.026c-2.89-.249-5.877-1.464-8.125-2.909l-.228.153c-1.993 1.309-3.983 1.602-5.65 1.447-1.59.865-3.473 1.223-5.429.807-1.159 1.902-3.066 2.912-5.134 3.105"/><path fill="#fff" d="M22.5 9c2.484 0 4.5 2.464 4.5 5.5S24.984 20 22.5 20 18 17.536 18 14.5 20.016 9 22.5 9m-13 0c2.484 0 4.5 2.464 4.5 5.5S11.984 20 9.5 20 5 17.536 5 14.5 7.016 9 9.5 9"/><path d="M21.5 11c1.38 0 2.5 1.568 2.5 3.5S22.88 18 21.5 18 19 16.432 19 14.5s1.12-3.5 2.5-3.5m-11 0c1.38 0 2.5 1.568 2.5 3.5S11.88 18 10.5 18 8 16.432 8 14.5 9.12 11 10.5 11"/><path fill="#dfdfdf" d="M16.426 23.132c1.394-1.228 3.713-1.696 5.805-.682.475.23.918.609 1.279 1.088 1.497-1.178 3.488-2.077 5.573-2.502 3.596-.733 7.539 1.764 7.791 4.751.139 1.657-1.017 4.753-2.714 6.507l.048 1.617c-2.805 2.957-5.937 3.461-8.381 2.81-2.593-1.604-5.454-3.451-5.74-5.858-.393-3.31-3.126-5.1-3.661-7.731"/><path fill="#7f7f7f" d="M25.827 36.721c-1.644-.438-2.977-1.398-3.69-2.486-.952-1.451-.819-2.828-.028-4.037-.705.488-1.595.923-2.7 1.276l-5.33-1.57c-.597-1.438.436-3.513 1.399-5.537.221-.463.546-.881.948-1.235 1.285.541 2.424 1.253 3.391 2.219a7.3 7.3 0 0 1 2.768-.151c2.916.421 5.109 2.353 5.502 5.663.286 2.407-.726 4.469-2.26 5.858"/><path fill="#9d9d9d" d="M10.051 8.084c-1.006.067-2.071-.122-3.137-.639-1.674 6.263-11.9 4.038-11.065-3.838.424-4.004 3.174-6.683 3.674-6.573l.943.931c2.536-2.184 7.405-3.72 10.127-2.029l-.002.005-.023.061c-1.105.804-.656 12.001-.517 12.082"/><path fill="#626262" d="M10.051 8.084a5 5 0 0 1-.37-.237C6.972 5.919 5.609 2.242 7.908-1.519c.534-.874 1.555-1.675 2.66-2.479l.025-.066c.771.479 1.37 1.217 1.694 2.272l3.619 2.911c.415 3.41-2.363 6.731-5.855 6.965"/><path fill="#bdbdbd" d="M13.769-1.596c-.737-.951-1.292-1.675-1.317-1.732l9.789-4.227c13.08-5.192 16.031 5.204 13.004 11.848-3.116 6.838-11.89 3.969-15.974.741-.431.378-.856.696-1.271.969-3.074 2.018-6.135.944-7.159.215C8.907 4.841 7.973 2.209 9.614-.476c.463-.756 1.423-1.395 2.389-2.092zM3.598 35.499c-2.171-.253-4.078-.837-4.824-2.062-1.349-2.218.883-6.401 1.511-7.957 1.535-3.807 6.806-5.413 9.83-1.044 1.641-.333 3.431-.241 4.94.306 1.666.605 3.076 1.487 4.124 2.934.944-.424 2.041-.653 3.12-.497 2.017.292 3.53 1.631 3.802 3.92.358 3.014-2.154 5.252-4.507 5.491q-.437.044-.857.059a9 9 0 0 1-.452 1.253l-4.466-1.751c.759 3.165-1.523 6.009-6.269 5.504-4.832-.515-6.098-3.347-5.952-6.156"/></g></svg>