<svg xmlns="http://www.w3.org/2000/svg" viewBox="0 0 36 36"><path fill="#EEE" d="M0 13h36v10H0z"/><path fill="#007a3d" d="M32 5H4a4 4 0 0 0-4 4v4h36V9a4 4 0 0 0-4-4"/><path fill="#141414" d="M32 31H4a4 4 0 0 1-4-4v-4h36v4a4 4 0 0 1-4 4"/><path fill="#ce1126" d="m24.812 18.36-.633 1.948 1.656-1.203 1.656 1.203-.633-1.947 1.656-1.202h-2.047l-.632-1.947-.632 1.947h-2.047zm-7.648.017-.633 1.947 1.656-1.203 1.656 1.203-.633-1.947 1.656-1.202h-2.047l-.632-1.947-.632 1.947h-2.047zm-7.987-.045-.633 1.947 1.656-1.203 1.656 1.203-.633-1.947 1.656-1.202h-2.047l-.632-1.947-.632 1.947H7.521Z"/></svg>