<svg xmlns="http://www.w3.org/2000/svg" xml:space="preserve" fill-rule="evenodd" stroke-linejoin="round" stroke-miterlimit="2" clip-rule="evenodd" viewBox="0 0 32 32"><clipPath id="a"><path d="M0 0h32v32H0z"/></clipPath><g clip-path="url(#a)"><path d="M32 7c0-.796-.316-1.559-.879-2.121A3 3 0 0 0 29 4H3c-.796 0-1.559.316-2.121.879A3 3 0 0 0 0 7v18c0 .796.316 1.559.879 2.121A3 3 0 0 0 3 28h26c.796 0 1.559-.316 2.121-.879A3 3 0 0 0 32 25z"/><path d="M30 7a1 1 0 0 0-1-1H3a1 1 0 0 0-1 1v18a1 1 0 0 0 1 1h26a1 1 0 0 0 1-1z"/><clipPath id="b"><path d="M30 7a1 1 0 0 0-1-1H3a1 1 0 0 0-1 1v18a1 1 0 0 0 1 1h26a1 1 0 0 0 1-1z"/></clipPath><g clip-path="url(#b)"><path fill="#fff" d="M1 13h30v6H1z"/><path fill="#f0a6b7" d="M1 18h30v5H1z"/><path fill="#5dccfb" d="M1 22h30v5H1z"/><path fill="#f0a6b7" d="M1 9h30v5H1z"/><path fill="#5dccfb" d="M1 5h30v5H1z"/></g></g></svg>