<svg xmlns="http://www.w3.org/2000/svg" xml:space="preserve" fill-rule="evenodd" stroke-linecap="round" stroke-linejoin="round" stroke-miterlimit="1.5" clip-rule="evenodd" viewBox="0 0 32 32"><clipPath id="a"><path d="M0 0h32v32H0z"/></clipPath><g clip-path="url(#a)"><path fill="none" stroke="#000" stroke-width="4" d="M2 16h5l4-2h10l4 2h5l-6.121-6.121A3 3 0 0 0 21.757 9h-3.049c-.466 0-.925.108-1.341.317L16 10l-1.367-.683A3 3 0 0 0 13.292 9h-3.049a3 3 0 0 0-2.122.879z"/><path fill="none" stroke="#000" stroke-width="4" d="m2 16 5.416-.677a6 6 0 0 1 4.585 1.344l3.165 2.638a3 3 0 0 0 1.92.695h2.862c.681 0 1.342-.232 1.874-.657L26 16h4l-5.843 5.843a5 5 0 0 1-2.775 1.406l-6.339.975a7 7 0 0 1-7.325-3.788l-.69-1.379a5 5 0 0 0-3.259-2.615z"/><path fill="#ebebeb" d="M26 15H8v5.5h15l4-3.5z"/><path fill="#e3131e" d="m30 16-1-1h-3v2h2z"/><path fill="#6d6d6d" d="M7 16h19v1H7z"/><path fill="#e3131e" d="m2 16 5.416-.677a6 6 0 0 1 4.585 1.344l3.165 2.638a3 3 0 0 0 1.92.695h2.862c.681 0 1.342-.232 1.874-.657L26 16h4l-5.843 5.843a5 5 0 0 1-2.775 1.406l-6.339.975a7 7 0 0 1-7.325-3.788l-.69-1.379a5 5 0 0 0-3.259-2.615z"/><path fill="#ebebeb" d="M7 12h19v4H7z"/><path fill="#e3131e" d="M2 16h5l1.536-1.536A5 5 0 0 1 12.071 13h8.262a5 5 0 0 1 3 1L26 16h4l-6.121-6.121A3 3 0 0 0 21.757 9h-3.049c-.466 0-.925.108-1.341.317L16 10l-1.367-.683A3 3 0 0 0 13.292 9h-3.049a3 3 0 0 0-2.122.879z"/></g></svg>