<svg xmlns="http://www.w3.org/2000/svg" xml:space="preserve" fill-rule="evenodd" stroke-linecap="round" stroke-linejoin="round" stroke-miterlimit="1.5" clip-rule="evenodd" viewBox="0 0 32 32"><clipPath id="a"><path d="M0 0h32v32H0z"/></clipPath><g clip-path="url(#a)"><path fill="none" stroke="#000" stroke-width="4" d="M5.604 21.621C3.391 18.51 2.811 14.632 4.26 11.027c3.032-7.541 11.278-9.288 16.683-7.114 5.406 2.173 10.147 9.141 7.115 16.683a11 11 0 0 1-1.272 2.321c.171.065.332.122.474.168 2.076.666 2.724 1.499.365 2.048-1.367.318-2.943.288-3.637.737-.75.484.435.813 1.896 1.258 1.515.462.324 1.477-1.138 1.906-1.89.554-4.603.966-8.709.966-7.316 0-10.12-1.203-8.171-2.405 1.217-.751-.166-1.317-2.031-1.853-1.121-.322-3.577-.489-3.758-1.591-.188-1.148.904-1.432 2.788-2.108.27-.096.517-.242.739-.422"/><path fill="#ffb636" d="M5.604 21.621C3.391 18.51 2.811 14.632 4.26 11.027c3.032-7.541 11.278-9.288 16.683-7.114 5.406 2.173 10.147 9.141 7.115 16.683a11 11 0 0 1-1.272 2.321c.171.065.332.122.474.168 2.076.666 2.724 1.499.365 2.048-1.367.318-2.943.288-3.637.737-.75.484.435.813 1.896 1.258 1.515.462.324 1.477-1.138 1.906-1.89.554-4.603.966-8.709.966-7.316 0-10.12-1.203-8.171-2.405 1.217-.751-.166-1.317-2.031-1.853-1.121-.322-3.577-.489-3.758-1.591-.188-1.148.904-1.432 2.788-2.108.27-.096.517-.242.739-.422"/><path d="M23.541 13.178c1.173.471 1.589 2.187.929 3.829s-2.148 2.592-3.321 2.12c-1.173-.471-1.589-2.187-.929-3.829.66-1.641 2.148-2.592 3.321-2.12M13.452 7.812c1.173.471 1.589 2.187.929 3.829s-2.149 2.592-3.321 2.12c-1.173-.471-1.589-2.187-.929-3.829s2.148-2.592 3.321-2.12"/><path fill="none" stroke="#694300" stroke-width="2" d="M10.514 16.98c1.108 6.102 6.85 7.062 8.241 4.151"/></g></svg>